# xmcd
#
# Track frame offsets:
#	150
#	11168
#	22660
#	33783
#	46067
#	58062
#	71899
#	85300
#	98178
#	109955
#	120933
#	133018
#	143146
#	155975
#	166247
#	176149
#	198875
#	212449
#	224931
#	239740
#	254905
#
# Disc length: 3747 seconds
#
# Revision: 1
# Processed by: cddbd v1.5.2PL0 Copyright (c) Steve Scherf et al.
# Submitted via: audiograbber 1.83.01
#
DISCID=3b0ea115
DTITLE=Various Artist - Virtue Recordings Studios
DYEAR=2017
DGENRE=Funk
TTITLE0=Gene Faith - Love of a woman soul of a man
TTITLE1=Bob Marshal and the A/Cs - Big ladies man
TTITLE2=Bob Marshal and the A/Cs - Funky fox
TTITLE3=R.D.M. band - How can I get in touch with you
TTITLE4=Gene Faith - When my ship comes in
TTITLE5=Gene Faith - I fell in love with an angel
TTITLE6=R.D.M. band - Give up
TTITLE7=The Volcanos - No trespassing
TTITLE8=Gene Faith - If you don't love me
TTITLE9=The Creations - Take these memories
TTITLE10=Gene Faith - Family man
TTITLE11=Richard Rome - Ghost a go go
TTITLE12=Gene Faith - My baby's missing
TTITLE13=Virtues - Meditation of the soul
TTITLE14=R.D.M. band - Butter that popcorn
TTITLE15=Ann Byers - This man is rated X
TTITLE16=New World - The world to-day
TTITLE17=New World - To be a man
TTITLE18=Quiet Storm - High horse pt1
TTITLE19=Quiet Storm - High horse pt2
TTITLE20=Past Due - Hot fun in the summertime
EXTD=Tramp Records 2017, TRCD-9064
EXTT0=
EXTT1=
EXTT2=
EXTT3=
EXTT4=
EXTT5=
EXTT6=
EXTT7=
EXTT8=
EXTT9=
EXTT10=
EXTT11=
EXTT12=
EXTT13=
EXTT14=
EXTT15=
EXTT16=
EXTT17=
EXTT18=
EXTT19=
EXTT20=
PLAYORDER=
